<svg width="31" height="37" viewBox="0 0 31 37" fill="none" xmlns="http://www.w3.org/2000/svg">
<path d="M19.9181 20.0416C20.8788 20.0416 21.7242 19.4095 22.1597 18.4537L26.7454 8.44825C27.2193 7.43075 26.6045 6.16659 25.631 6.16659H6.67354L5.46949 3.08325H1.28091V6.16659H3.84273L8.45401 17.8678L6.72478 21.6295C5.78972 23.6953 7.01939 26.2083 8.96637 26.2083H24.3373V23.1249H8.96637L10.3754 20.0416H19.9181ZM7.89041 9.24992H23.4535L19.9181 16.9583H10.9262L7.89041 9.24992ZM8.96637 27.7499C7.55737 27.7499 6.41736 29.1374 6.41736 30.8333C6.41736 32.5291 7.55737 33.9166 8.96637 33.9166C10.3754 33.9166 11.5282 32.5291 11.5282 30.8333C11.5282 29.1374 10.3754 27.7499 8.96637 27.7499ZM21.7755 27.7499C20.3665 27.7499 19.2265 29.1374 19.2265 30.8333C19.2265 32.5291 20.3665 33.9166 21.7755 33.9166C23.1845 33.9166 24.3373 32.5291 24.3373 30.8333C24.3373 29.1374 23.1845 27.7499 21.7755 27.7499Z" fill="#97B498"/>
</svg>
